<svg xmlns="http://www.w3.org/2000/svg" xmlns:xlink="http://www.w3.org/1999/xlink" width="1027" height="1026" viewBox="0 0 1027 1026"><path id="screwdriver-wrench-solid-copy" fill="#21b6f9" stroke="none" d="M 158.247971 11.047485 C 139.249023 -3.751709 112.250519 -1.951782 95.051468 15.047241 L 15.055898 95.042847 C -1.943161 112.04187 -3.743062 139.040405 10.856131 158.23938 L 170.847275 366.227844 C 179.846786 378.027161 194.04599 385.026794 208.845169 385.026794 L 317.039185 385.026794 L 535.0271 603.014709 C 505.628754 661.011475 515.028198 733.807495 563.625488 782.204834 L 787.613098 1006.192444 C 812.611755 1031.190918 853.209534 1031.190918 878.20813 1006.192444 L 1006.20105 878.199524 C 1031.199585 853.200928 1031.199585 812.603088 1006.20105 787.604492 L 782.21344 563.616882 C 733.816101 515.219604 661.020142 505.620117 603.023376 535.018494 L 385.035431 317.030579 L 385.035431 209.03656 C 385.035431 194.037354 378.035797 180.038147 366.236481 171.038635 L 158.247971 11.047485 Z M 40.854469 793.204224 C 15.455875 818.602783 1.056673 853.200928 1.056673 889.198914 C 1.056673 964.194763 61.853306 1024.991333 136.849167 1024.991333 C 172.847168 1024.991333 207.445236 1010.592163 232.843842 985.193604 L 468.430786 749.606567 C 452.831665 707.808899 450.431793 662.411499 461.231201 619.413818 L 337.838013 496.02063 L 40.854469 793.204224 Z M 1025 289.032104 C 1025 268.033264 1022.80011 247.634399 1018.600342 228.035461 C 1013.800598 205.636719 986.402161 199.837036 970.203064 216.036133 L 842.410156 343.829041 C 836.410461 349.828735 828.210876 353.228577 819.81134 353.228577 L 705.0177 353.228577 C 687.418701 353.228577 673.01947 338.829346 673.01947 321.230347 L 673.01947 206.236694 C 673.01947 197.837158 676.419312 189.637573 682.419006 183.637939 L 810.211914 55.844971 C 826.411011 39.645874 820.611267 12.247437 798.212585 7.447693 C 778.413696 3.247925 758.014771 1.048096 737.01593 1.048096 C 578.024719 1.048096 449.031891 130.040894 449.031891 289.032104 L 449.031891 290.632019 L 619.622437 461.222595 C 691.618408 443.02356 771.21405 462.222534 827.610901 518.619385 L 859.009216 550.0177 C 957.003784 504.020203 1025 404.42572 1025 289.032104 Z M 113.050476 865.000244 C 113.050476 838.492065 134.539612 817.002869 161.047821 817.002869 C 187.55603 817.002869 209.045166 838.492065 209.045166 865.000244 C 209.045166 891.508423 187.55603 912.997559 161.047821 912.997559 C 134.539612 912.997559 113.050476 891.508423 113.050476 865.000244 Z"/></svg>